# xmcd
#
# Track frame offsets:
#	150
#	11328
#	23516
#	36399
#	47888
#	59872
#	68675
#	79349
#	92455
#	103567
#	113809
#	122860
#	135579
#	148029
#	159599
#	177399
#	189049
#	201788
#	217215
#	228484
#	239133
#	247873
#	258568
#	269152
#	280241
#	290347
#	303491
#	313568
#	323321
#	333929
#	344899
#
# Disc length: 4754 seconds
#
# Revision: 4
# Processed by: cddbd v1.5.2PL0 Copyright (c) Steve Scherf et al.
# Submitted via: EZCDAudioConverter 7.1.5.1
#
DISCID=d512901f
DTITLE=Connie Smith - Born to Sing Born to Sing [Box  CD 02]
DYEAR=2001
DGENRE=USA Country
TTITLE0=Nobody But a Fool (Would Love You)
TTITLE1=I'll Never Get Over Loving You
TTITLE2=Go Ahead and Make Me Cry
TTITLE3=In My Baby's Arms Again
TTITLE4=For Better or for Worse
TTITLE5=Ain't Nothin' Shakin' (But the Leaves on the Trees)
TTITLE6=Where Could I Go But to the Lord
TTITLE7=Farther Along
TTITLE8=When God Dips His Love in My Heart
TTITLE9=He Set Me Free
TTITLE10=Wings of a Dove
TTITLE11=I Saw a Man
TTITLE12=Just a Closer Walk with Thee
TTITLE13=Po' Folks
TTITLE14=Four Walls
TTITLE15=Cry, Cry, Cry
TTITLE16=In the Garden
TTITLE17=The Wayfaring Pilgrim
TTITLE18=Keep on Holding to Those Nail Scarred Hands
TTITLE19=Satisfied
TTITLE20=I Wouldn't Take Nothin' for My Journey
TTITLE21=Five Fingers to Spare
TTITLE22=Ain't Had No Lovin'
TTITLE23=You and Only You
TTITLE24=Strange
TTITLE25=Go Away Stranger
TTITLE26=A Touch of Yesterday
TTITLE27=Born to Sing
TTITLE28=Invisible Tears
TTITLE29=Paper Roses
TTITLE30=I Don't Know Why I Keep Loving You
EXTD=
EXTT0=
EXTT1=
EXTT2=
EXTT3=
EXTT4=
EXTT5=
EXTT6=
EXTT7=
EXTT8=
EXTT9=
EXTT10=
EXTT11=
EXTT12=
EXTT13=
EXTT14=
EXTT15=
EXTT16=
EXTT17=
EXTT18=
EXTT19=
EXTT20=
EXTT21=
EXTT22=
EXTT23=
EXTT24=
EXTT25=
EXTT26=
EXTT27=
EXTT28=
EXTT29=
EXTT30=
PLAYORDER=
